<?xml version="1.0" standalone="no"?>
<!DOCTYPE svg PUBLIC "-//W3C//DTD SVG 20010904//EN"
 "http://www.w3.org/TR/2001/REC-SVG-20010904/DTD/svg10.dtd">
<svg version="1.0" xmlns="http://www.w3.org/2000/svg"
 width="512.000000pt" height="512.000000pt" viewBox="0 0 512.000000 512.000000"
 preserveAspectRatio="xMidYMid meet">
<metadata>
Created by potrace 1.11, written by Peter Selinger 2001-2013
</metadata>
<g transform="translate(0.000000,512.000000) scale(0.100000,-0.100000)"
fill="#000000" stroke="none">
<path d="M2370 4743 c-243 -26 -533 -131 -740 -269 -436 -290 -708 -742 -760
-1264 -31 -307 44 -650 201 -926 131 -229 611 -883 1163 -1584 111 -140 228
-290 261 -332 33 -42 62 -77 65 -77 21 0 958 1223 1256 1639 245 342 331 510
399 777 137 544 -54 1166 -483 1575 -261 249 -608 414 -957 457 -84 10 -325
13 -405 4z m452 -152 c339 -58 622 -211 869 -468 206 -215 352 -501 406 -793
24 -133 24 -393 0 -515 -40 -198 -111 -375 -219 -549 -142 -227 -766 -1062
-1240 -1658 l-77 -98 -93 118 c-365 457 -868 1122 -1092 1442 -215 306 -280
440 -342 706 -25 107 -28 137 -28 294 1 142 5 195 23 280 69 327 222 604 458
830 221 212 505 357 803 410 148 26 382 26 532 1z"/>
<path d="M2365 4306 c-297 -50 -543 -179 -743 -391 -231 -244 -352 -549 -352
-891 0 -882 864 -1502 1703 -1222 387 128 699 446 821 837 46 147 59 247 53
431 -4 131 -10 186 -30 265 -123 487 -503 853 -997 960 -103 22 -353 28 -455
11z m309 -396 c112 -13 252 -59 353 -116 54 -30 69 -36 50 -19 -17 16 -23 25
-14 25 8 0 17 10 21 23 3 12 15 33 26 45 12 13 19 29 16 37 -9 24 33 8 89 -34
118 -89 218 -208 281 -333 l34 -68 -29 0 c-16 0 -46 -7 -66 -16 -21 -8 -47
-13 -57 -11 -12 4 -17 1 -14 -6 17 -41 47 -150 43 -160 -2 -7 -10 6 -17 28
-39 120 -123 248 -233 352 -218 207 -533 286 -830 208 -81 -21 -196 -75 -273
-129 -74 -52 -86 -48 -16 5 109 84 268 151 399 168 96 12 136 12 237 1z m2
-175 c72 -8 184 -48 256 -91 70 -43 184 -147 211 -193 l18 -31 -58 -26 c-32
-15 -59 -27 -61 -29 -1 -1 9 -22 23 -46 33 -58 65 -162 64 -208 -1 -20 -3 -27
-6 -16 -15 73 -74 211 -108 253 -1 1 -18 -1 -38 -5 l-36 -8 34 -55 c85 -137
87 -365 5 -498 -27 -43 -25 -49 10 -57 17 -4 30 -12 30 -18 0 -6 -36 -47 -80
-90 -69 -68 -74 -75 -38 -55 22 13 64 49 94 81 49 53 55 56 78 46 31 -14 27
-24 -41 -99 -41 -46 -44 -51 -18 -36 20 12 12 1 -25 -35 -52 -49 -53 -52 -25
-46 l30 7 -40 -36 c-22 -19 -72 -51 -110 -70 -195 -95 -450 -81 -644 33 -105
63 -254 213 -238 240 6 9 73 43 152 78 22 10 41 19 43 20 1 1 -9 22 -22 46
-35 63 -56 151 -56 239 0 93 18 161 63 244 l35 63 -34 11 -34 10 -45 -71 c-50
-77 -52 -58 -5 35 l29 56 -25 6 c-13 4 -24 11 -24 16 0 18 121 138 170 170 28
18 50 34 50 36 0 10 -84 -40 -145 -87 -38 -29 -65 -47 -61 -40 4 6 3 11 -3 11
-5 0 -13 -5 -16 -10 -4 -6 -11 -8 -16 -4 -5 3 -7 10 -3 15 3 5 9 7 14 4 5 -3
11 4 15 14 9 29 99 107 169 146 83 46 174 75 265 84 74 8 93 7 197 -4z"/>
<path d="M2211 3304 c-116 -131 -132 -346 -38 -501 32 -54 44 -61 76 -43 85
45 555 41 628 -6 12 -8 24 -14 27 -14 12 0 71 108 87 161 41 133 11 294 -75
397 -25 29 -27 29 -63 16 -21 -7 -51 -13 -68 -14 -20 0 -26 -3 -17 -9 11 -7
11 -9 -1 -14 -12 -5 -215 -23 -227 -20 -3 1 -45 4 -95 8 -62 5 -101 13 -127
28 -31 17 -40 18 -53 7 -17 -14 -21 0 -4 17 7 7 6 12 -5 16 -9 4 -26 -7 -45
-29z m441 -95 c37 -19 68 -53 68 -75 0 -7 -25 -31 -55 -55 -30 -24 -54 -46
-54 -49 -1 -3 23 -16 52 -30 46 -22 52 -29 55 -59 3 -24 -3 -40 -20 -58 -30
-34 -94 -63 -138 -63 -72 0 -171 73 -156 116 4 11 29 35 56 54 28 19 50 38 50
42 0 3 -25 22 -55 43 -72 47 -72 81 1 126 67 41 124 43 196 8z"/>
</g>
</svg>
